<mxfile host="app.diagrams.net" modified="2022-07-13T10:37:47.583Z" agent="5.0 (Windows NT 10.0; Win64; x64) AppleWebKit/537.36 (KHTML, like Gecko) Chrome/102.0.0.0 Safari/537.36" etag="7O6ytepTKIVqzza7TR7D" version="20.0.4" type="github">
  <diagram id="C5RBs43oDa-KdzZeNtuy" name="Page-1">
    <mxGraphModel dx="2187" dy="1623" grid="1" gridSize="10" guides="1" tooltips="1" connect="1" arrows="1" fold="1" page="1" pageScale="1" pageWidth="827" pageHeight="1169" math="0" shadow="0">
      <root>
        <mxCell id="WIyWlLk6GJQsqaUBKTNV-0" />
        <mxCell id="WIyWlLk6GJQsqaUBKTNV-1" parent="WIyWlLk6GJQsqaUBKTNV-0" />
        <mxCell id="4f9obVL4uLRaanKrOE4g-21" value="BlockChain" style="shape=umlFrame;whiteSpace=wrap;html=1;width=80;height=30;" vertex="1" parent="WIyWlLk6GJQsqaUBKTNV-1">
          <mxGeometry x="720" y="30" width="330" height="410" as="geometry" />
        </mxCell>
        <mxCell id="4f9obVL4uLRaanKrOE4g-27" value="WebServer For SmartContract" style="shape=umlFrame;whiteSpace=wrap;html=1;width=210;height=15;" vertex="1" parent="WIyWlLk6GJQsqaUBKTNV-1">
          <mxGeometry x="160" y="265" width="440" height="190" as="geometry" />
        </mxCell>
        <mxCell id="4f9obVL4uLRaanKrOE4g-24" value="Firebase Web Hosting" style="shape=umlFrame;whiteSpace=wrap;html=1;width=160;height=20;" vertex="1" parent="WIyWlLk6GJQsqaUBKTNV-1">
          <mxGeometry x="30" y="30" width="440" height="190" as="geometry" />
        </mxCell>
        <mxCell id="zkfFHV4jXpPFQw0GAbJ--17" value="Contract Lottery" style="swimlane;fontStyle=0;align=center;verticalAlign=top;childLayout=stackLayout;horizontal=1;startSize=26;horizontalStack=0;resizeParent=1;resizeLast=0;collapsible=1;marginBottom=0;rounded=0;shadow=0;strokeWidth=1;" parent="WIyWlLk6GJQsqaUBKTNV-1" vertex="1">
          <mxGeometry x="790" y="90" width="160" height="164" as="geometry">
            <mxRectangle x="550" y="140" width="160" height="26" as="alternateBounds" />
          </mxGeometry>
        </mxCell>
        <mxCell id="zkfFHV4jXpPFQw0GAbJ--18" value="totalAmount" style="text;align=left;verticalAlign=top;spacingLeft=4;spacingRight=4;overflow=hidden;rotatable=0;points=[[0,0.5],[1,0.5]];portConstraint=eastwest;" parent="zkfFHV4jXpPFQw0GAbJ--17" vertex="1">
          <mxGeometry y="26" width="160" height="26" as="geometry" />
        </mxCell>
        <mxCell id="4f9obVL4uLRaanKrOE4g-2" value="drawTime" style="text;align=left;verticalAlign=top;spacingLeft=4;spacingRight=4;overflow=hidden;rotatable=0;points=[[0,0.5],[1,0.5]];portConstraint=eastwest;" vertex="1" parent="zkfFHV4jXpPFQw0GAbJ--17">
          <mxGeometry y="52" width="160" height="26" as="geometry" />
        </mxCell>
        <mxCell id="zkfFHV4jXpPFQw0GAbJ--23" value="" style="line;html=1;strokeWidth=1;align=left;verticalAlign=middle;spacingTop=-1;spacingLeft=3;spacingRight=3;rotatable=0;labelPosition=right;points=[];portConstraint=eastwest;" parent="zkfFHV4jXpPFQw0GAbJ--17" vertex="1">
          <mxGeometry y="78" width="160" height="8" as="geometry" />
        </mxCell>
        <mxCell id="4f9obVL4uLRaanKrOE4g-1" value="constructor ( drawTime )" style="text;align=left;verticalAlign=top;spacingLeft=4;spacingRight=4;overflow=hidden;rotatable=0;points=[[0,0.5],[1,0.5]];portConstraint=eastwest;" vertex="1" parent="zkfFHV4jXpPFQw0GAbJ--17">
          <mxGeometry y="86" width="160" height="26" as="geometry" />
        </mxCell>
        <mxCell id="zkfFHV4jXpPFQw0GAbJ--24" value="buyTicket" style="text;align=left;verticalAlign=top;spacingLeft=4;spacingRight=4;overflow=hidden;rotatable=0;points=[[0,0.5],[1,0.5]];portConstraint=eastwest;" parent="zkfFHV4jXpPFQw0GAbJ--17" vertex="1">
          <mxGeometry y="112" width="160" height="26" as="geometry" />
        </mxCell>
        <mxCell id="4f9obVL4uLRaanKrOE4g-0" value="draw" style="text;align=left;verticalAlign=top;spacingLeft=4;spacingRight=4;overflow=hidden;rotatable=0;points=[[0,0.5],[1,0.5]];portConstraint=eastwest;" vertex="1" parent="zkfFHV4jXpPFQw0GAbJ--17">
          <mxGeometry y="138" width="160" height="26" as="geometry" />
        </mxCell>
        <mxCell id="4f9obVL4uLRaanKrOE4g-3" value="ERC721 (NFT) Ticket" style="swimlane;fontStyle=0;align=center;verticalAlign=top;childLayout=stackLayout;horizontal=1;startSize=26;horizontalStack=0;resizeParent=1;resizeLast=0;collapsible=1;marginBottom=0;rounded=0;shadow=0;strokeWidth=1;" vertex="1" parent="WIyWlLk6GJQsqaUBKTNV-1">
          <mxGeometry x="790" y="340" width="160" height="40" as="geometry">
            <mxRectangle x="550" y="140" width="160" height="26" as="alternateBounds" />
          </mxGeometry>
        </mxCell>
        <mxCell id="4f9obVL4uLRaanKrOE4g-6" value="" style="line;html=1;strokeWidth=1;align=left;verticalAlign=middle;spacingTop=-1;spacingLeft=3;spacingRight=3;rotatable=0;labelPosition=right;points=[];portConstraint=eastwest;" vertex="1" parent="4f9obVL4uLRaanKrOE4g-3">
          <mxGeometry y="26" width="160" height="8" as="geometry" />
        </mxCell>
        <mxCell id="4f9obVL4uLRaanKrOE4g-17" value="«Daemon»&lt;br&gt;&lt;b&gt;Contract Deployer&lt;/b&gt;" style="html=1;dropTarget=0;" vertex="1" parent="WIyWlLk6GJQsqaUBKTNV-1">
          <mxGeometry x="410" y="315" width="180" height="90" as="geometry" />
        </mxCell>
        <mxCell id="4f9obVL4uLRaanKrOE4g-18" value="" style="shape=module;jettyWidth=8;jettyHeight=4;" vertex="1" parent="4f9obVL4uLRaanKrOE4g-17">
          <mxGeometry x="1" width="20" height="20" relative="1" as="geometry">
            <mxPoint x="-27" y="7" as="offset" />
          </mxGeometry>
        </mxCell>
        <mxCell id="4f9obVL4uLRaanKrOE4g-22" value="WebServer&lt;br&gt;(firebase)" style="html=1;dropTarget=0;" vertex="1" parent="WIyWlLk6GJQsqaUBKTNV-1">
          <mxGeometry x="260" y="95" width="180" height="90" as="geometry" />
        </mxCell>
        <mxCell id="4f9obVL4uLRaanKrOE4g-23" value="" style="shape=module;jettyWidth=8;jettyHeight=4;" vertex="1" parent="4f9obVL4uLRaanKrOE4g-22">
          <mxGeometry x="1" width="20" height="20" relative="1" as="geometry">
            <mxPoint x="-27" y="7" as="offset" />
          </mxGeometry>
        </mxCell>
        <mxCell id="4f9obVL4uLRaanKrOE4g-30" value="" style="edgeStyle=orthogonalEdgeStyle;rounded=0;orthogonalLoop=1;jettySize=auto;html=1;entryX=0;entryY=0.5;entryDx=0;entryDy=0;" edge="1" parent="WIyWlLk6GJQsqaUBKTNV-1" source="4f9obVL4uLRaanKrOE4g-25" target="4f9obVL4uLRaanKrOE4g-28">
          <mxGeometry relative="1" as="geometry">
            <Array as="points">
              <mxPoint x="140" y="360" />
            </Array>
          </mxGeometry>
        </mxCell>
        <mxCell id="4f9obVL4uLRaanKrOE4g-25" value="Front-end&lt;br&gt;(Flutter)" style="html=1;dropTarget=0;" vertex="1" parent="WIyWlLk6GJQsqaUBKTNV-1">
          <mxGeometry x="50" y="95" width="180" height="90" as="geometry" />
        </mxCell>
        <mxCell id="4f9obVL4uLRaanKrOE4g-26" value="" style="shape=module;jettyWidth=8;jettyHeight=4;" vertex="1" parent="4f9obVL4uLRaanKrOE4g-25">
          <mxGeometry x="1" width="20" height="20" relative="1" as="geometry">
            <mxPoint x="-27" y="7" as="offset" />
          </mxGeometry>
        </mxCell>
        <mxCell id="4f9obVL4uLRaanKrOE4g-28" value="WebServer&lt;br&gt;serve deployed contracts" style="html=1;dropTarget=0;" vertex="1" parent="WIyWlLk6GJQsqaUBKTNV-1">
          <mxGeometry x="190" y="315" width="180" height="90" as="geometry" />
        </mxCell>
        <mxCell id="4f9obVL4uLRaanKrOE4g-29" value="" style="shape=module;jettyWidth=8;jettyHeight=4;" vertex="1" parent="4f9obVL4uLRaanKrOE4g-28">
          <mxGeometry x="1" width="20" height="20" relative="1" as="geometry">
            <mxPoint x="-27" y="7" as="offset" />
          </mxGeometry>
        </mxCell>
        <mxCell id="4f9obVL4uLRaanKrOE4g-31" value="" style="edgeStyle=orthogonalEdgeStyle;rounded=0;orthogonalLoop=1;jettySize=auto;html=1;" edge="1" parent="WIyWlLk6GJQsqaUBKTNV-1" source="4f9obVL4uLRaanKrOE4g-25" target="zkfFHV4jXpPFQw0GAbJ--17">
          <mxGeometry relative="1" as="geometry">
            <mxPoint x="150" y="195" as="sourcePoint" />
            <mxPoint x="670" y="220" as="targetPoint" />
            <Array as="points">
              <mxPoint x="140" y="250" />
              <mxPoint x="670" y="250" />
              <mxPoint x="670" y="172" />
            </Array>
          </mxGeometry>
        </mxCell>
      </root>
    </mxGraphModel>
  </diagram>
</mxfile>
